<mxfile host="Electron" agent="Mozilla/5.0 (Macintosh; Intel Mac OS X 10_15_7) AppleWebKit/537.36 (KHTML, like Gecko) draw.io/28.1.2 Chrome/138.0.7204.243 Electron/37.4.0 Safari/537.36" version="28.1.2">
  <diagram id="bg0Q1WrWWC46wLkk-2Yy" name="StrictDoc&#39;s own traceability">
    <mxGraphModel dx="-121" dy="579" grid="1" gridSize="10" guides="1" tooltips="1" connect="1" arrows="1" fold="1" page="1" pageScale="1" pageWidth="827" pageHeight="1169" math="0" shadow="0">
      <root>
        <mxCell id="0" />
        <mxCell id="1" parent="0" />
        <mxCell id="zAIG83uWjQyKsGUuBP41-26" style="edgeStyle=orthogonalEdgeStyle;rounded=0;orthogonalLoop=1;jettySize=auto;html=1;exitX=0.5;exitY=1;exitDx=0;exitDy=0;" parent="1" source="zAIG83uWjQyKsGUuBP41-23" target="zAIG83uWjQyKsGUuBP41-25" edge="1">
          <mxGeometry relative="1" as="geometry" />
        </mxCell>
        <mxCell id="zAIG83uWjQyKsGUuBP41-28" style="edgeStyle=orthogonalEdgeStyle;rounded=0;orthogonalLoop=1;jettySize=auto;html=1;exitX=0.5;exitY=1;exitDx=0;exitDy=0;" parent="1" source="zAIG83uWjQyKsGUuBP41-23" target="zAIG83uWjQyKsGUuBP41-27" edge="1">
          <mxGeometry relative="1" as="geometry" />
        </mxCell>
        <mxCell id="zAIG83uWjQyKsGUuBP41-23" value="Feature 1" style="rounded=0;whiteSpace=wrap;html=1;" parent="1" vertex="1">
          <mxGeometry x="2680" y="760" width="120" height="60" as="geometry" />
        </mxCell>
        <mxCell id="zAIG83uWjQyKsGUuBP41-29" style="edgeStyle=orthogonalEdgeStyle;rounded=0;orthogonalLoop=1;jettySize=auto;html=1;exitX=0.5;exitY=1;exitDx=0;exitDy=0;" parent="1" source="zAIG83uWjQyKsGUuBP41-24" target="zAIG83uWjQyKsGUuBP41-23" edge="1">
          <mxGeometry relative="1" as="geometry" />
        </mxCell>
        <mxCell id="zAIG83uWjQyKsGUuBP41-24" value="Requirement 1" style="rounded=0;whiteSpace=wrap;html=1;" parent="1" vertex="1">
          <mxGeometry x="2680" y="650" width="120" height="60" as="geometry" />
        </mxCell>
        <mxCell id="zAIG83uWjQyKsGUuBP41-31" style="edgeStyle=orthogonalEdgeStyle;rounded=0;orthogonalLoop=1;jettySize=auto;html=1;exitX=0.5;exitY=1;exitDx=0;exitDy=0;" parent="1" source="zAIG83uWjQyKsGUuBP41-25" target="zAIG83uWjQyKsGUuBP41-30" edge="1">
          <mxGeometry relative="1" as="geometry" />
        </mxCell>
        <mxCell id="zAIG83uWjQyKsGUuBP41-33" style="edgeStyle=orthogonalEdgeStyle;rounded=0;orthogonalLoop=1;jettySize=auto;html=1;exitX=0.5;exitY=1;exitDx=0;exitDy=0;" parent="1" source="zAIG83uWjQyKsGUuBP41-25" target="zAIG83uWjQyKsGUuBP41-32" edge="1">
          <mxGeometry relative="1" as="geometry" />
        </mxCell>
        <mxCell id="zAIG83uWjQyKsGUuBP41-25" value="Requirement 1" style="rounded=0;whiteSpace=wrap;html=1;" parent="1" vertex="1">
          <mxGeometry x="2570" y="880" width="120" height="60" as="geometry" />
        </mxCell>
        <mxCell id="zAIG83uWjQyKsGUuBP41-27" value="Requirement 2" style="rounded=0;whiteSpace=wrap;html=1;" parent="1" vertex="1">
          <mxGeometry x="2775" y="880" width="120" height="60" as="geometry" />
        </mxCell>
        <mxCell id="zAIG83uWjQyKsGUuBP41-44" style="edgeStyle=orthogonalEdgeStyle;rounded=0;orthogonalLoop=1;jettySize=auto;html=1;exitX=0.5;exitY=1;exitDx=0;exitDy=0;" parent="1" source="zAIG83uWjQyKsGUuBP41-30" target="zAIG83uWjQyKsGUuBP41-42" edge="1">
          <mxGeometry relative="1" as="geometry" />
        </mxCell>
        <mxCell id="zAIG83uWjQyKsGUuBP41-45" style="edgeStyle=orthogonalEdgeStyle;rounded=0;orthogonalLoop=1;jettySize=auto;html=1;exitX=0.5;exitY=1;exitDx=0;exitDy=0;" parent="1" source="zAIG83uWjQyKsGUuBP41-30" target="zAIG83uWjQyKsGUuBP41-43" edge="1">
          <mxGeometry relative="1" as="geometry" />
        </mxCell>
        <mxCell id="zAIG83uWjQyKsGUuBP41-30" value="Feature 1" style="rounded=0;whiteSpace=wrap;html=1;" parent="1" vertex="1">
          <mxGeometry x="2490" y="992" width="120" height="60" as="geometry" />
        </mxCell>
        <mxCell id="zAIG83uWjQyKsGUuBP41-32" value="Feature 2" style="rounded=0;whiteSpace=wrap;html=1;" parent="1" vertex="1">
          <mxGeometry x="2650" y="992" width="120" height="60" as="geometry" />
        </mxCell>
        <mxCell id="zAIG83uWjQyKsGUuBP41-34" value="Feature" style="swimlane;" parent="1" vertex="1">
          <mxGeometry x="3055" y="760" width="430" height="200" as="geometry" />
        </mxCell>
        <mxCell id="zAIG83uWjQyKsGUuBP41-35" value="Requirement 1" style="rounded=0;whiteSpace=wrap;html=1;" parent="zAIG83uWjQyKsGUuBP41-34" vertex="1">
          <mxGeometry x="40" y="80" width="120" height="60" as="geometry" />
        </mxCell>
        <mxCell id="zAIG83uWjQyKsGUuBP41-36" value="Requirement 2" style="rounded=0;whiteSpace=wrap;html=1;" parent="zAIG83uWjQyKsGUuBP41-34" vertex="1">
          <mxGeometry x="245" y="80" width="120" height="60" as="geometry" />
        </mxCell>
        <mxCell id="zAIG83uWjQyKsGUuBP41-38" style="edgeStyle=orthogonalEdgeStyle;rounded=0;orthogonalLoop=1;jettySize=auto;html=1;exitX=0.5;exitY=1;exitDx=0;exitDy=0;entryX=0.5;entryY=0;entryDx=0;entryDy=0;" parent="1" source="zAIG83uWjQyKsGUuBP41-37" target="zAIG83uWjQyKsGUuBP41-35" edge="1">
          <mxGeometry relative="1" as="geometry" />
        </mxCell>
        <mxCell id="zAIG83uWjQyKsGUuBP41-39" style="edgeStyle=orthogonalEdgeStyle;rounded=0;orthogonalLoop=1;jettySize=auto;html=1;exitX=0.5;exitY=1;exitDx=0;exitDy=0;" parent="1" source="zAIG83uWjQyKsGUuBP41-37" target="zAIG83uWjQyKsGUuBP41-36" edge="1">
          <mxGeometry relative="1" as="geometry" />
        </mxCell>
        <mxCell id="zAIG83uWjQyKsGUuBP41-37" value="Requirement 1" style="rounded=0;whiteSpace=wrap;html=1;" parent="1" vertex="1">
          <mxGeometry x="3210" y="585" width="120" height="60" as="geometry" />
        </mxCell>
        <mxCell id="zAIG83uWjQyKsGUuBP41-40" value="" style="endArrow=none;dashed=1;html=1;dashPattern=1 3;strokeWidth=2;rounded=0;" parent="1" edge="1">
          <mxGeometry width="50" height="50" relative="1" as="geometry">
            <mxPoint x="2520" y="740" as="sourcePoint" />
            <mxPoint x="2960" y="740" as="targetPoint" />
          </mxGeometry>
        </mxCell>
        <mxCell id="zAIG83uWjQyKsGUuBP41-41" value="" style="endArrow=none;dashed=1;html=1;dashPattern=1 3;strokeWidth=2;rounded=0;" parent="1" edge="1">
          <mxGeometry width="50" height="50" relative="1" as="geometry">
            <mxPoint x="2450" y="950" as="sourcePoint" />
            <mxPoint x="3000" y="950" as="targetPoint" />
          </mxGeometry>
        </mxCell>
        <mxCell id="zAIG83uWjQyKsGUuBP41-42" value="Requirement 1" style="rounded=0;whiteSpace=wrap;html=1;" parent="1" vertex="1">
          <mxGeometry x="2387.5" y="1100" width="120" height="60" as="geometry" />
        </mxCell>
        <mxCell id="zAIG83uWjQyKsGUuBP41-43" value="Requirement 2" style="rounded=0;whiteSpace=wrap;html=1;" parent="1" vertex="1">
          <mxGeometry x="2592.5" y="1100" width="120" height="60" as="geometry" />
        </mxCell>
        <mxCell id="79Z9Q-6hPmKRdCCNC6Sg-38" value="" style="endArrow=none;dashed=1;html=1;dashPattern=1 3;strokeWidth=2;rounded=0;" parent="1" edge="1">
          <mxGeometry width="50" height="50" relative="1" as="geometry">
            <mxPoint x="1020" y="990" as="sourcePoint" />
            <mxPoint x="2160" y="990" as="targetPoint" />
          </mxGeometry>
        </mxCell>
        <mxCell id="79Z9Q-6hPmKRdCCNC6Sg-54" value="Figures" style="" parent="0" />
        <mxCell id="79Z9Q-6hPmKRdCCNC6Sg-9" value="" style="edgeStyle=orthogonalEdgeStyle;rounded=0;orthogonalLoop=1;jettySize=auto;html=1;" parent="79Z9Q-6hPmKRdCCNC6Sg-54" source="79Z9Q-6hPmKRdCCNC6Sg-8" target="79Z9Q-6hPmKRdCCNC6Sg-7" edge="1">
          <mxGeometry relative="1" as="geometry" />
        </mxCell>
        <mxCell id="79Z9Q-6hPmKRdCCNC6Sg-18" style="edgeStyle=orthogonalEdgeStyle;rounded=0;orthogonalLoop=1;jettySize=auto;html=1;exitX=0.5;exitY=0;exitDx=0;exitDy=0;entryX=0;entryY=0.5;entryDx=0;entryDy=0;" parent="79Z9Q-6hPmKRdCCNC6Sg-54" source="79Z9Q-6hPmKRdCCNC6Sg-17" target="79Z9Q-6hPmKRdCCNC6Sg-8" edge="1">
          <mxGeometry relative="1" as="geometry" />
        </mxCell>
        <mxCell id="79Z9Q-6hPmKRdCCNC6Sg-8" value="L1 reqs&lt;br&gt;&lt;br&gt;(A tool)" style="rounded=0;whiteSpace=wrap;html=1;" parent="79Z9Q-6hPmKRdCCNC6Sg-54" vertex="1">
          <mxGeometry x="1600" y="700" width="80" height="60" as="geometry" />
        </mxCell>
        <mxCell id="79Z9Q-6hPmKRdCCNC6Sg-15" style="edgeStyle=orthogonalEdgeStyle;rounded=0;orthogonalLoop=1;jettySize=auto;html=1;exitX=0.5;exitY=0;exitDx=0;exitDy=0;entryX=0.5;entryY=1;entryDx=0;entryDy=0;" parent="79Z9Q-6hPmKRdCCNC6Sg-54" source="79Z9Q-6hPmKRdCCNC6Sg-12" target="79Z9Q-6hPmKRdCCNC6Sg-8" edge="1">
          <mxGeometry relative="1" as="geometry" />
        </mxCell>
        <mxCell id="79Z9Q-6hPmKRdCCNC6Sg-16" style="edgeStyle=orthogonalEdgeStyle;rounded=0;orthogonalLoop=1;jettySize=auto;html=1;exitX=0.75;exitY=0;exitDx=0;exitDy=0;entryX=0.5;entryY=1;entryDx=0;entryDy=0;" parent="79Z9Q-6hPmKRdCCNC6Sg-54" source="79Z9Q-6hPmKRdCCNC6Sg-12" target="79Z9Q-6hPmKRdCCNC6Sg-10" edge="1">
          <mxGeometry relative="1" as="geometry" />
        </mxCell>
        <mxCell id="79Z9Q-6hPmKRdCCNC6Sg-22" style="edgeStyle=orthogonalEdgeStyle;rounded=0;orthogonalLoop=1;jettySize=auto;html=1;exitX=0;exitY=0.5;exitDx=0;exitDy=0;entryX=0.5;entryY=1;entryDx=0;entryDy=0;" parent="79Z9Q-6hPmKRdCCNC6Sg-54" source="79Z9Q-6hPmKRdCCNC6Sg-12" target="79Z9Q-6hPmKRdCCNC6Sg-20" edge="1">
          <mxGeometry relative="1" as="geometry" />
        </mxCell>
        <mxCell id="79Z9Q-6hPmKRdCCNC6Sg-36" style="edgeStyle=orthogonalEdgeStyle;rounded=0;orthogonalLoop=1;jettySize=auto;html=1;exitX=0.75;exitY=0;exitDx=0;exitDy=0;entryX=0.5;entryY=1;entryDx=0;entryDy=0;" parent="79Z9Q-6hPmKRdCCNC6Sg-54" source="79Z9Q-6hPmKRdCCNC6Sg-12" target="79Z9Q-6hPmKRdCCNC6Sg-11" edge="1">
          <mxGeometry relative="1" as="geometry" />
        </mxCell>
        <mxCell id="79Z9Q-6hPmKRdCCNC6Sg-12" value="L2 reqs&lt;br&gt;&lt;div&gt;&lt;br&gt;&lt;/div&gt;&lt;div&gt;StrictDoc&lt;/div&gt;&lt;div&gt;(THE tool)&lt;/div&gt;" style="rounded=0;whiteSpace=wrap;html=1;" parent="79Z9Q-6hPmKRdCCNC6Sg-54" vertex="1">
          <mxGeometry x="1600" y="830" width="80" height="60" as="geometry" />
        </mxCell>
        <mxCell id="79Z9Q-6hPmKRdCCNC6Sg-14" style="edgeStyle=orthogonalEdgeStyle;rounded=0;orthogonalLoop=1;jettySize=auto;html=1;exitX=0.5;exitY=0;exitDx=0;exitDy=0;entryX=0.5;entryY=1;entryDx=0;entryDy=0;" parent="79Z9Q-6hPmKRdCCNC6Sg-54" source="79Z9Q-6hPmKRdCCNC6Sg-13" target="79Z9Q-6hPmKRdCCNC6Sg-12" edge="1">
          <mxGeometry relative="1" as="geometry" />
        </mxCell>
        <mxCell id="79Z9Q-6hPmKRdCCNC6Sg-24" style="edgeStyle=orthogonalEdgeStyle;rounded=0;orthogonalLoop=1;jettySize=auto;html=1;exitX=0.5;exitY=0;exitDx=0;exitDy=0;entryX=0.5;entryY=1;entryDx=0;entryDy=0;" parent="79Z9Q-6hPmKRdCCNC6Sg-54" source="79Z9Q-6hPmKRdCCNC6Sg-13" target="79Z9Q-6hPmKRdCCNC6Sg-23" edge="1">
          <mxGeometry relative="1" as="geometry">
            <Array as="points">
              <mxPoint x="1640" y="1010" />
              <mxPoint x="1520" y="1010" />
            </Array>
          </mxGeometry>
        </mxCell>
        <mxCell id="79Z9Q-6hPmKRdCCNC6Sg-40" style="edgeStyle=orthogonalEdgeStyle;rounded=0;orthogonalLoop=1;jettySize=auto;html=1;exitX=0.25;exitY=0;exitDx=0;exitDy=0;entryX=0.75;entryY=1;entryDx=0;entryDy=0;" parent="79Z9Q-6hPmKRdCCNC6Sg-54" source="79Z9Q-6hPmKRdCCNC6Sg-13" target="79Z9Q-6hPmKRdCCNC6Sg-27" edge="1">
          <mxGeometry relative="1" as="geometry">
            <Array as="points">
              <mxPoint x="1620" y="1020" />
              <mxPoint x="1420" y="1020" />
            </Array>
          </mxGeometry>
        </mxCell>
        <mxCell id="79Z9Q-6hPmKRdCCNC6Sg-13" value="Code" style="rounded=0;whiteSpace=wrap;html=1;" parent="79Z9Q-6hPmKRdCCNC6Sg-54" vertex="1">
          <mxGeometry x="1600" y="1040" width="80" height="60" as="geometry" />
        </mxCell>
        <mxCell id="79Z9Q-6hPmKRdCCNC6Sg-19" style="edgeStyle=orthogonalEdgeStyle;rounded=0;orthogonalLoop=1;jettySize=auto;html=1;exitX=0;exitY=0.5;exitDx=0;exitDy=0;entryX=0.5;entryY=1;entryDx=0;entryDy=0;" parent="79Z9Q-6hPmKRdCCNC6Sg-54" source="79Z9Q-6hPmKRdCCNC6Sg-12" target="79Z9Q-6hPmKRdCCNC6Sg-17" edge="1">
          <mxGeometry relative="1" as="geometry" />
        </mxCell>
        <mxCell id="79Z9Q-6hPmKRdCCNC6Sg-17" value="Feature" style="rounded=0;whiteSpace=wrap;html=1;" parent="79Z9Q-6hPmKRdCCNC6Sg-54" vertex="1">
          <mxGeometry x="1480" y="770" width="80" height="60" as="geometry" />
        </mxCell>
        <mxCell id="79Z9Q-6hPmKRdCCNC6Sg-21" style="edgeStyle=orthogonalEdgeStyle;rounded=0;orthogonalLoop=1;jettySize=auto;html=1;exitX=0.5;exitY=0;exitDx=0;exitDy=0;entryX=0;entryY=0.5;entryDx=0;entryDy=0;" parent="79Z9Q-6hPmKRdCCNC6Sg-54" source="79Z9Q-6hPmKRdCCNC6Sg-20" target="79Z9Q-6hPmKRdCCNC6Sg-8" edge="1">
          <mxGeometry relative="1" as="geometry" />
        </mxCell>
        <mxCell id="79Z9Q-6hPmKRdCCNC6Sg-20" value="Development plan" style="rounded=0;whiteSpace=wrap;html=1;" parent="79Z9Q-6hPmKRdCCNC6Sg-54" vertex="1">
          <mxGeometry x="1360" y="770" width="80" height="60" as="geometry" />
        </mxCell>
        <mxCell id="79Z9Q-6hPmKRdCCNC6Sg-26" style="edgeStyle=orthogonalEdgeStyle;rounded=0;orthogonalLoop=1;jettySize=auto;html=1;exitX=0.5;exitY=0;exitDx=0;exitDy=0;entryX=0;entryY=0.75;entryDx=0;entryDy=0;" parent="79Z9Q-6hPmKRdCCNC6Sg-54" source="79Z9Q-6hPmKRdCCNC6Sg-23" target="79Z9Q-6hPmKRdCCNC6Sg-12" edge="1">
          <mxGeometry relative="1" as="geometry" />
        </mxCell>
        <mxCell id="79Z9Q-6hPmKRdCCNC6Sg-23" value="Design" style="rounded=0;whiteSpace=wrap;html=1;" parent="79Z9Q-6hPmKRdCCNC6Sg-54" vertex="1">
          <mxGeometry x="1480" y="910" width="80" height="60" as="geometry" />
        </mxCell>
        <mxCell id="79Z9Q-6hPmKRdCCNC6Sg-28" style="edgeStyle=orthogonalEdgeStyle;rounded=0;orthogonalLoop=1;jettySize=auto;html=1;exitX=0.5;exitY=0;exitDx=0;exitDy=0;entryX=0;entryY=0.75;entryDx=0;entryDy=0;" parent="79Z9Q-6hPmKRdCCNC6Sg-54" source="79Z9Q-6hPmKRdCCNC6Sg-27" target="79Z9Q-6hPmKRdCCNC6Sg-12" edge="1">
          <mxGeometry relative="1" as="geometry" />
        </mxCell>
        <mxCell id="79Z9Q-6hPmKRdCCNC6Sg-30" style="edgeStyle=orthogonalEdgeStyle;rounded=0;orthogonalLoop=1;jettySize=auto;html=1;exitX=0.5;exitY=0;exitDx=0;exitDy=0;entryX=0.5;entryY=1;entryDx=0;entryDy=0;" parent="79Z9Q-6hPmKRdCCNC6Sg-54" source="79Z9Q-6hPmKRdCCNC6Sg-29" target="79Z9Q-6hPmKRdCCNC6Sg-27" edge="1">
          <mxGeometry relative="1" as="geometry" />
        </mxCell>
        <mxCell id="79Z9Q-6hPmKRdCCNC6Sg-27" value="Development guide" style="rounded=0;whiteSpace=wrap;html=1;" parent="79Z9Q-6hPmKRdCCNC6Sg-54" vertex="1">
          <mxGeometry x="1360" y="910" width="80" height="60" as="geometry" />
        </mxCell>
        <mxCell id="79Z9Q-6hPmKRdCCNC6Sg-64" style="edgeStyle=orthogonalEdgeStyle;rounded=0;orthogonalLoop=1;jettySize=auto;html=1;exitX=0.75;exitY=0;exitDx=0;exitDy=0;entryX=0.25;entryY=1;entryDx=0;entryDy=0;" parent="79Z9Q-6hPmKRdCCNC6Sg-54" source="79Z9Q-6hPmKRdCCNC6Sg-29" target="79Z9Q-6hPmKRdCCNC6Sg-12" edge="1">
          <mxGeometry relative="1" as="geometry">
            <Array as="points">
              <mxPoint x="1420" y="1030" />
              <mxPoint x="1620" y="1030" />
            </Array>
          </mxGeometry>
        </mxCell>
        <mxCell id="79Z9Q-6hPmKRdCCNC6Sg-29" value="Development scripts, configs, libraries" style="rounded=0;whiteSpace=wrap;html=1;" parent="79Z9Q-6hPmKRdCCNC6Sg-54" vertex="1">
          <mxGeometry x="1360" y="1040" width="80" height="60" as="geometry" />
        </mxCell>
        <mxCell id="79Z9Q-6hPmKRdCCNC6Sg-34" style="edgeStyle=orthogonalEdgeStyle;rounded=0;orthogonalLoop=1;jettySize=auto;html=1;exitX=0;exitY=0.5;exitDx=0;exitDy=0;entryX=1;entryY=0.5;entryDx=0;entryDy=0;" parent="79Z9Q-6hPmKRdCCNC6Sg-54" source="79Z9Q-6hPmKRdCCNC6Sg-31" target="79Z9Q-6hPmKRdCCNC6Sg-13" edge="1">
          <mxGeometry relative="1" as="geometry" />
        </mxCell>
        <mxCell id="79Z9Q-6hPmKRdCCNC6Sg-35" style="edgeStyle=orthogonalEdgeStyle;rounded=0;orthogonalLoop=1;jettySize=auto;html=1;exitX=0.5;exitY=0;exitDx=0;exitDy=0;entryX=0.75;entryY=1;entryDx=0;entryDy=0;" parent="79Z9Q-6hPmKRdCCNC6Sg-54" source="79Z9Q-6hPmKRdCCNC6Sg-31" target="79Z9Q-6hPmKRdCCNC6Sg-12" edge="1">
          <mxGeometry relative="1" as="geometry">
            <Array as="points">
              <mxPoint x="1760" y="1010" />
              <mxPoint x="1660" y="1010" />
            </Array>
          </mxGeometry>
        </mxCell>
        <mxCell id="79Z9Q-6hPmKRdCCNC6Sg-31" value="Test" style="rounded=0;whiteSpace=wrap;html=1;" parent="79Z9Q-6hPmKRdCCNC6Sg-54" vertex="1">
          <mxGeometry x="1720" y="1040" width="80" height="60" as="geometry" />
        </mxCell>
        <mxCell id="79Z9Q-6hPmKRdCCNC6Sg-33" style="edgeStyle=orthogonalEdgeStyle;rounded=0;orthogonalLoop=1;jettySize=auto;html=1;exitX=0.5;exitY=0;exitDx=0;exitDy=0;entryX=0.5;entryY=1;entryDx=0;entryDy=0;" parent="79Z9Q-6hPmKRdCCNC6Sg-54" source="79Z9Q-6hPmKRdCCNC6Sg-32" target="79Z9Q-6hPmKRdCCNC6Sg-31" edge="1">
          <mxGeometry relative="1" as="geometry" />
        </mxCell>
        <mxCell id="79Z9Q-6hPmKRdCCNC6Sg-32" value="Test result" style="rounded=0;whiteSpace=wrap;html=1;" parent="79Z9Q-6hPmKRdCCNC6Sg-54" vertex="1">
          <mxGeometry x="1720" y="1140" width="80" height="60" as="geometry" />
        </mxCell>
        <mxCell id="79Z9Q-6hPmKRdCCNC6Sg-7" value="Zephyr RTOS" style="rounded=0;whiteSpace=wrap;html=1;" parent="79Z9Q-6hPmKRdCCNC6Sg-54" vertex="1">
          <mxGeometry x="1760" y="700" width="80" height="60" as="geometry" />
        </mxCell>
        <mxCell id="79Z9Q-6hPmKRdCCNC6Sg-10" value="DO-178C (aviation)" style="rounded=0;whiteSpace=wrap;html=1;" parent="79Z9Q-6hPmKRdCCNC6Sg-54" vertex="1">
          <mxGeometry x="1850" y="700" width="80" height="60" as="geometry" />
        </mxCell>
        <mxCell id="79Z9Q-6hPmKRdCCNC6Sg-11" value="ISO 13485&lt;div&gt;(medical)&lt;/div&gt;" style="rounded=0;whiteSpace=wrap;html=1;" parent="79Z9Q-6hPmKRdCCNC6Sg-54" vertex="1">
          <mxGeometry x="1940" y="700" width="80" height="60" as="geometry" />
        </mxCell>
        <mxCell id="LldZmWKW7AhyZr-JKAm6-2" style="edgeStyle=orthogonalEdgeStyle;rounded=0;orthogonalLoop=1;jettySize=auto;html=1;exitX=0.5;exitY=0;exitDx=0;exitDy=0;entryX=0.5;entryY=1;entryDx=0;entryDy=0;" parent="79Z9Q-6hPmKRdCCNC6Sg-54" source="LldZmWKW7AhyZr-JKAm6-1" target="79Z9Q-6hPmKRdCCNC6Sg-13" edge="1">
          <mxGeometry relative="1" as="geometry" />
        </mxCell>
        <mxCell id="LldZmWKW7AhyZr-JKAm6-1" value="Code coverage" style="rounded=0;whiteSpace=wrap;html=1;" parent="79Z9Q-6hPmKRdCCNC6Sg-54" vertex="1">
          <mxGeometry x="1600" y="1140" width="80" height="60" as="geometry" />
        </mxCell>
        <mxCell id="LldZmWKW7AhyZr-JKAm6-3" value="&lt;div&gt;Project statistics&lt;/div&gt;&lt;div&gt;&lt;br&gt;&lt;/div&gt;&lt;div&gt;(counts all links)&lt;/div&gt;" style="rounded=0;whiteSpace=wrap;html=1;" parent="79Z9Q-6hPmKRdCCNC6Sg-54" vertex="1">
          <mxGeometry x="1930" y="1040" width="90" height="60" as="geometry" />
        </mxCell>
      </root>
    </mxGraphModel>
  </diagram>
</mxfile>
